<?xml version="1.0" standalone="no"?>
<!DOCTYPE svg PUBLIC "-//W3C//DTD SVG 20010904//EN"
 "http://www.w3.org/TR/2001/REC-SVG-20010904/DTD/svg10.dtd">
<svg version="1.0" xmlns="http://www.w3.org/2000/svg"
 width="200.000000pt" height="200.000000pt" viewBox="0 0 200.000000 200.000000"
 preserveAspectRatio="xMidYMid meet">

<g transform="translate(0.000000,200.000000) scale(0.100000,-0.100000)"
fill="#000000" stroke="none">
<path d="M1005 1751 c-48 -22 -79 -54 -99 -101 -11 -29 -126 -538 -126 -563 0
-11 -185 -8 -215 3 -24 9 -27 7 -41 -25 -7 -19 -14 -52 -14 -74 0 -59 23 -71
137 -71 92 0 93 0 88 -22 -3 -13 -32 -142 -65 -287 -33 -145 -66 -274 -75
-287 -14 -22 -28 -28 -80 -36 -28 -5 -25 -40 5 -56 36 -19 130 -9 182 20 78
43 91 74 153 363 30 143 57 270 60 283 5 22 6 22 198 22 137 0 196 -3 205 -12
7 -7 12 -29 12 -50 l0 -38 90 0 90 0 0 43 c0 104 -55 183 -143 206 -26 6 -124
11 -226 11 -100 0 -181 3 -181 8 0 25 122 543 135 569 9 22 24 35 42 39 54 12
61 15 67 29 17 45 -119 63 -199 26z"/>
<path d="M1020 752 c0 -92 20 -119 128 -173 118 -59 142 -81 142 -130 0 -55
-38 -83 -103 -76 -59 5 -77 21 -84 76 l-6 42 -81 -3 -81 -3 -3 -52 c-4 -66 24
-122 79 -163 114 -82 331 -56 407 49 75 104 63 270 -25 335 -14 10 -64 35
-112 55 -80 35 -86 39 -89 69 l-3 32 -85 0 -84 0 0 -58z"/>
</g>
</svg>
